#!OML:ASF H:\MichaelJackson\Top Level 1\Subject 1\Session 1\male.ASF
:FULLY-SPECIFIED
:DEGREES
1132
root 7.65229 15.9538 34.1255 -173.876 -206.204 -178.676
lowerback -1.42962 -4.21103 0.637497
upperback -1.01904 -5.62406 -3.09304
thorax -0.620431 -2.83153 -3.56388
lowerneck -5.89802 -3.70206 0.911399
upperneck 1.33144 -5.13483 4.37678
head 1.51066 -2.46422 1.05501
rclavicle -2.29596e-014 -3.57812e-014
rhumerus 14.0175 -22.1365 2.25404
rradius 24.6056
rwrist -5.23735
rhand -37.2404 -49.2994
rfingers 7.12502
rthumb -10.3065 -439.027
lclavicle -2.29596e-014 -3.57812e-014
lhumerus -53.7219 -35.1795 116.362
lradius 51.817
lwrist 21.9286
lhand 23.1235 35.3307
lfingers 7.12502
lthumb 47.433 57.8038
rfemur -25.5553 2.03335 -0.860975
rtibia 40.6816
rfoot -19.6442 -1.49739
rtoes -37.3069
lfemur 1.36609 -8.2655 -2.32594
ltibia 18.0106
lfoot -32.0163 -4.26782
ltoes -20.0554
1133
root 7.65245 15.9558 34.1223 -173.839 -206.186 -178.654
lowerback -1.40775 -4.21489 0.610757
upperback -1.02643 -5.62929 -3.09879
thorax -0.638598 -2.83419 -3.55282
lowerneck -5.89444 -3.70807 0.920934
upperneck 1.32487 -5.14326 4.37934
head 1.50785 -2.46849 1.05403
rclavicle -3.34455e-014 5.56597e-015
rhumerus 14.0292 -22.1309 2.22157
rradius 24.5956
rwrist -5.26497
rhand -37.1962 -49.2146
rfingers 7.12502
rthumb -10.2639 -438.944
lclavicle -3.34455e-014 5.56597e-015
lhumerus -53.7702 -35.2292 116.396
lradius 51.8392
lwrist 21.9607
lhand 23.1166 35.3097
lfingers 7.12502
lthumb 47.4265 57.7857
rfemur -25.5962 2.04768 -0.893339
rtibia 40.6612
rfoot -19.5924 -1.47621
rtoes -37.3058
lfemur 1.3371 -8.26152 -2.35527
ltibia 17.9998
lfoot -31.9947 -4.24962
ltoes -20.0693
1134
root 7.65265 15.9574 34.119 -173.801 -206.164 -178.634
lowerback -1.3905 -4.21755 0.59075
upperback -1.03375 -5.63298 -3.10603
thorax -0.654798 -2.83613 -3.54739
lowerneck -5.88252 -3.71589 0.931195
upperneck 1.31179 -5.15374 4.38385
head 1.50157 -2.47399 1.05368
rclavicle 1.99282e-014 -1.90833e-014
rhumerus 14.0516 -22.1605 2.17241
rradius 24.5766
rwrist -5.23915
rhand -37.1456 -49.1111
rfingers 7.12502
rthumb -10.2151 -438.843
lclavicle 1.99282e-014 -1.90833e-014
lhumerus -53.8069 -35.259 116.415
lradius 51.8608
lwrist 21.989
lhand 23.119 35.3056
lfingers 7.12502
lthumb 47.4288 57.7806
rfemur -25.6419 2.06465 -0.924405
rtibia 40.6436
rfoot -19.5443 -1.45639
rtoes -37.3038
lfemur 1.30623 -8.25295 -2.38165
ltibia 17.9924
lfoot -31.9767 -4.23878
ltoes -20.0708
1135
root 7.65291 15.9587 34.1158 -173.764 -206.141 -178.619
lowerback -1.38065 -4.21696 0.580826
upperback -1.03829 -5.63232 -3.11467
thorax -0.664841 -2.8359 -3.54974
lowerneck -5.8665 -3.72728 0.939577
upperneck 1.29248 -5.16864 4.39402
head 1.4929 -2.48176 1.05539
rclavicle -5.24543e-014 2.78299e-014
rhumerus 14.0655 -22.1979 2.1326
rradius 24.5512
rwrist -5.1713
rhand -37.0856 -48.9963
rfingers 7.12502
rthumb -10.1572 -438.731
lclavicle -5.24543e-014 2.78299e-014
lhumerus -53.8295 -35.292 116.426
lradius 51.8734
lwrist 22.0298
lhand 23.1264 35.3153
lfingers 7.12502
lthumb 47.4356 57.7872
rfemur -25.689 2.08093 -0.950714
rtibia 40.6257
rfoot -19.5016 -1.44102
rtoes -37.3073
lfemur 1.27256 -8.23898 -2.40201
ltibia 17.9894
lfoot -31.9619 -4.23531
ltoes -20.0609
1136
root 7.65329 15.9598 34.1126 -173.729 -206.117 -178.61
lowerback -1.37683 -4.21277 0.583946
upperback -1.03994 -5.6269 -3.12437
thorax -0.669603 -2.83333 -3.56104
lowerneck -5.84461 -3.74291 0.945111
upperneck 1.26498 -5.18866 4.40849
head 1.48089 -2.49226 1.05894
rclavicle 4.87022e-015 -3.97569e-015
rhumerus 14.0647 -22.2298 2.11192
rradius 24.5198
rwrist -5.07215
rhand -37.0294 -48.8878
rfingers 7.12502
rthumb -10.103 -438.625
lclavicle 4.87022e-015 -3.97569e-015
lhumerus -53.835 -35.3262 116.431
lradius 51.8725
lwrist 22.0759
lhand 23.1451 35.3322
lfingers 7.12502
lthumb 47.4529 57.7963
rfemur -25.7342 2.0978 -0.971021
rtibia 40.6055
rfoot -19.4645 -1.43111
rtoes -37.3145
lfemur 1.23664 -8.21942 -2.41486
ltibia 17.9912
lfoot -31.9527 -4.23913
ltoes -20.0479
1137
root 7.65378 15.9607 34.1094 -173.697 -206.093 -178.608
lowerback -1.37817 -4.20459 0.598268
upperback -1.03769 -5.61613 -3.13432
thorax -0.668228 -2.8281 -3.57941
lowerneck -5.81753 -3.76215 0.950346
upperneck 1.22741 -5.21282 4.42172
head 1.46479 -2.50514 1.06219
rclavicle 1.87852e-014 1.66979e-014
rhumerus 14.0482 -22.2615 2.11078
rradius 24.484
rwrist -4.93781
rhand -36.9758 -48.7713
rfingers 7.12502
rthumb -10.0513 -438.511
lclavicle 1.87852e-014 1.66979e-014
lhumerus -53.8184 -35.3576 116.427
lradius 51.8556
lwrist 22.1166
lhand 23.1814 35.3565
lfingers 7.12502
lthumb 47.4865 57.8054
rfemur -25.7762 2.11396 -0.985749
rtibia 40.5826
rfoot -19.4335 -1.42378
rtoes -37.3242
lfemur 1.19996 -8.1944 -2.42113
ltibia 17.9984
lfoot -31.9497 -4.24944
ltoes -20.0301
1138
root 7.65431 15.9613 34.1061 -173.671 -206.069 -178.608
lowerback -1.38183 -4.19408 0.620426
upperback -1.03131 -5.60223 -3.14414
thorax -0.661828 -2.82128 -3.60239
lowerneck -5.78824 -3.78235 0.949739
upperneck 1.18291 -5.23759 4.43827
head 1.44639 -2.51847 1.06754
rclavicle -7.03698e-014 -2.54444e-014
rhumerus 14.0271 -22.3086 2.11548
rradius 24.4416
rwrist -4.76535
rhand -36.9354 -48.6753
rfingers 7.12502
rthumb -10.0123 -438.417
lclavicle -7.03698e-014 -2.54444e-014
lhumerus -53.7796 -35.3794 116.41
lradius 51.8246
lwrist 22.1394
lhand 23.2347 35.3864
lfingers 7.12502
lthumb 47.5357 57.8129
rfemur -25.813 2.12817 -0.996739
rtibia 40.5585
rfoot -19.4087 -1.41847
rtoes -37.337
lfemur 1.16407 -8.16605 -2.42307
ltibia 18.0098
lfoot -31.9514 -4.26566
ltoes -20.0063
1139
root 7.65479 15.9616 34.1028 -173.648 -206.045 -178.612
lowerback -1.38657 -4.18088 0.648968
upperback -1.02124 -5.58472 -3.15377
thorax -0.651371 -2.81263 -3.62898
lowerneck -5.75667 -3.80241 0.945868
upperneck 1.13055 -5.26154 4.45492
head 1.42519 -2.53159 1.07361
rclavicle -1.14301e-015 -1.19271e-014
rhumerus 14.0011 -22.3632 2.12766
rradius 24.3965
rwrist -4.58191
rhand -36.9114 -48.5993
rfingers 7.12502
rthumb -9.98919 -438.342
lclavicle -1.14301e-015 -1.19271e-014
lhumerus -53.7252 -35.3938 116.384
lradius 51.7849
lwrist 22.1397
lhand 23.3038 35.4166
lfingers 7.12502
lthumb 47.5995 57.8141
rfemur -25.8486 2.13923 -1.00421
rtibia 40.5362
rfoot -19.389 -1.41045
rtoes -37.3521
lfemur 1.12939 -8.1318 -2.42072
ltibia 18.0241
lfoot -31.9576 -4.28755
ltoes -19.9843
1140
root 7.65507 15.9617 34.0994 -173.63 -206.02 -178.616
lowerback -1.38849 -4.16615 0.677804
upperback -1.00773 -5.56513 -3.16234
thorax -0.638708 -2.80286 -3.6546
lowerneck -5.72919 -3.82122 0.93745
upperneck 1.07788 -5.28351 4.46929
head 1.40465 -2.54376 1.07973
rclavicle -3.67255e-014 2.54444e-014
rhumerus 13.9761 -22.4322 2.14007
rradius 24.3545
rwrist -4.40535
rhand -36.9054 -48.5459
rfingers 7.12502
rthumb -9.98338 -438.289
lclavicle -3.67255e-014 2.54444e-014
lhumerus -53.6599 -35.4003 116.351
lradius 51.7423
lwrist 22.1163
lhand 23.3761 35.4442
lfingers 7.12502
lthumb 47.6662 57.8113
rfemur -25.8831 2.14927 -1.0115
rtibia 40.5189
rfoot -19.3728 -1.39892
rtoes -37.3639
lfemur 1.09839 -8.09201 -2.41704
ltibia 18.0392
lfoot -31.9664 -4.31541
ltoes -19.9594
1141
root 7.65509 15.9616 34.0959 -173.615 -205.992 -178.616
lowerback -1.38537 -4.14995 0.703252
upperback -0.991791 -5.54355 -3.17164
thorax -0.625941 -2.79204 -3.6788
lowerneck -5.70649 -3.83767 0.924833
upperneck 1.0285 -5.30227 4.4835
head 1.3861 -2.55423 1.08651
rclavicle -4.45775e-014 -9.54166e-015
rhumerus 13.9507 -22.5017 2.15157
rradius 24.3196
rwrist -4.26823
rhand -36.9303 -48.5155
rfingers 7.12502
rthumb -10.0074 -438.258
lclavicle -4.45775e-014 -9.54166e-015
lhumerus -53.5968 -35.4023 116.317
lradius 51.7083
lwrist 22.0694
lhand 23.4402 35.4635
lfingers 7.12502
lthumb 47.7253 57.8034
rfemur -25.918 2.15681 -1.02109
rtibia 40.5091
rfoot -19.3594 -1.38065
rtoes -37.3754
lfemur 1.07312 -8.0498 -2.41603
ltibia 18.0531
lfoot -31.9764 -4.34431
ltoes -19.9423
1142
root 7.65476 15.9614 34.0924 -173.603 -205.965 -178.609
lowerback -1.37584 -4.13467 0.718008
upperback -0.975249 -5.5231 -3.17997
thorax -0.615079 -2.78169 -3.6956
lowerneck -5.6875 -3.85003 0.904958
upperneck 0.986102 -5.31546 4.49606
head 1.37052 -2.5618 1.09406
rclavicle 4.67144e-015 1.11319e-014
rhumerus 13.9311 -22.5654 2.16163
rradius 24.2947
rwrist -4.17781
rhand -36.9704 -48.4974
rfingers 7.12502
rthumb -10.0461 -438.238
lclavicle 4.67144e-015 1.11319e-014
lhumerus -53.5427 -35.3982 116.285
lradius 51.6888
lwrist 22.0039
lhand 23.4816 35.4742
lfingers 7.12502
lthumb 47.7635 57.7966
rfemur -25.9528 2.15942 -1.03688
rtibia 40.508
rfoot -19.3487 -1.35505
rtoes -37.3871
lfemur 1.05423 -8.00617 -2.42122
ltibia 18.0636
lfoot -31.9848 -4.3804
ltoes -19.9175
